<?xml version="1.0" standalone="no"?><!DOCTYPE svg PUBLIC "-//W3C//DTD SVG 1.1//EN" "http://www.w3.org/Graphics/SVG/1.1/DTD/svg11.dtd"><svg t="1606803379138" class="icon" viewBox="0 0 1024 1024" version="1.1" xmlns="http://www.w3.org/2000/svg" p-id="4827" xmlns:xlink="http://www.w3.org/1999/xlink" width="128" height="128"><defs><style type="text/css"></style></defs><path d="M521.35531719 961.64745049a435.42936651 435.42936651 0 0 1-300.14488037-118.64100762 331.74499747 331.74499747 0 0 1-102.89717753-244.0293706C116.17659687 455.59575986 201.92424453 375.75204805 285.53522891 299.84429463A533.32225401 533.32225401 0 0 0 437.74433193 103.04641513 63.76251269 63.76251269 0 0 1 519.21865479 65.93595753a11.24559318 11.24559318 0 0 1 6.40998808 4.4982369c73.09635557 34.29905888 156.48242871 114.7050501 173.63195772 290.6985832 10.7395418-8.43419443 21.42285469-20.24206787 36.43572129-32.6122207a61.17602695 61.17602695 0 0 1 55.77814247-16.30610947 65.7304919 65.7304919 0 0 1 47.11903506 32.61221983 522.30157295 522.30157295 0 0 1 66.46145538 258.0863625 355.97925088 355.97925088 0 0 1-105.03383995 256.39952342A386.56726435 386.56726435 0 0 1 521.35531719 961.64745049z" fill="#2c2c2c" p-id="4828"></path><path d="M520.00584628 905.41948467a381.61920322 381.61920322 0 0 1-257.24294295-96.71210069 262.41591533 262.41591533 0 0 1-88.22167823-197.92243916C172.68570195 494.39305567 246.17565283 429.16861603 317.86630948 367.31785362a425.53324423 425.53324423 0 0 0 130.44888017-159.68742276 55.44077433 55.44077433 0 0 1 69.8351335-29.80082197 9.83989424 9.83989424 0 0 1 5.62279658 3.37367812c62.46926982 28.11398291 142.20052558 131.01115957 156.87602402 274.39247285 9.16515879-6.74735623 43.35176162-46.10693145 56.22796583-56.22796582 53.30411104-48.35605078 78.2130999 46.66921172 55.15963417 5.06051719a404.2228456 404.2228456 0 0 1 56.9589293 209.73031172 281.58965244 281.58965244 0 0 1-89.96474532 208.04347266A340.74147218 340.74147218 0 0 1 520.1745295 905.41948467z" fill="#ffffff" p-id="4829"></path><path d="M510.16595205 455.03347958a353.73013242 353.73013242 0 0 1-89.96474531 111.33137286c-43.23930557 39.92185547-78.32555596 70.84723711-77.14476914 131.01115957a135.56562539 135.56562539 0 0 0 43.23930556 99.52349942 185.88965449 185.88965449 0 0 0 129.77414562 52.2920083 167.55933779 167.55933779 0 0 0 119.25951503-42.17097481 152.20910302 152.20910302 0 0 0 44.42009238-108.51997324v-1.12455967a229.97237959 229.97237959 0 0 0-24.51539267-104.58401572c-42.1147459 38.79729668-54.9909501 43.29553359-70.17250167 37.67273701a22.49118633 22.49118633 0 0 1-15.18155068-21.92890694 170.14582441 170.14582441 0 0 0-59.6578711-153.50234678z m0 0" fill="#2c2c2c" p-id="4830"></path></svg>