<?xml version="1.0" standalone="no"?><!DOCTYPE svg PUBLIC "-//W3C//DTD SVG 1.1//EN" "http://www.w3.org/Graphics/SVG/1.1/DTD/svg11.dtd"><svg t="1606920570548" class="icon" viewBox="0 0 1024 1024" version="1.1" xmlns="http://www.w3.org/2000/svg" p-id="5760" xmlns:xlink="http://www.w3.org/1999/xlink" width="128" height="128"><defs><style type="text/css"></style></defs><path d="M0 512c0 282.76736 229.23264 512 512 512s512-229.23264 512-512S794.76736 0 512 0 0 229.23264 0 512z" fill="#44B3FF" p-id="5761"></path><path d="M746.43285334 673.69984c-8.09984 0.9984-25.29792-14.8992-38.2976-45.99808-8.90368 33.39776-26.30144 61.5936-49.50016 83.49696 28.09856 7.19872 47.19616 21.1968 47.19616 37.2992 0 23.5008-40.69888 42.50112-90.90048 42.50112-37.69856 0-70.0928-10.8032-83.79904-26.09664a198.5024 198.5024 0 0 1-17.30048 0.69632c-6.69696 0-13.39904-0.39936-19.99872-0.90112-13.59872 15.50336-46.10048 26.40384-84.10112 26.40384-50.19648 0-90.79808-19.00032-90.79808-42.50112 0-16.70144 20.59776-31.09888 50.60096-38.09792a179.06688 179.06688 0 0 1-49.50016-82.90304c-13.0048 31.40096-30.20288 47.49824-38.2976 46.49984-10.40384-1.30048-20.90496-32.39936-15.104-79.49824 3.79904-31.50336 21.90336-70.10304 40.09984-82.80064-0.1024-3.59936 0-7.30112 0.50176-10.99776 3.39968-29.30176 8.2944-55.20384 20.99712-57.8048a162.99008 162.99008 0 0 1-3.39968-32.79872c0-97.79712 87.90016-177.1008 188.99968-177.1008 101.09952 0 188.99968 79.30368 188.99968 177.1008 0 11.29984-1.19808 22.30272-3.49696 32.9984h0.19968c10.39872 0.70144 19.50208 26.8032 23.10144 57.9072 0.49664 4.096 0.59904 7.99744 0.39936 11.89376 17.69984 14.0032 34.80064 51.0976 38.5024 81.50016 5.79584 46.7968-4.70528 78.0032-15.104 79.20128" fill="#ffffff" p-id="5762"></path></svg>