<?xml version="1.0" standalone="no"?><!DOCTYPE svg PUBLIC "-//W3C//DTD SVG 1.1//EN" "http://www.w3.org/Graphics/SVG/1.1/DTD/svg11.dtd"><svg t="1606920578543" class="icon" viewBox="0 0 1024 1024" version="1.1" xmlns="http://www.w3.org/2000/svg" p-id="6048" xmlns:xlink="http://www.w3.org/1999/xlink" width="128" height="128"><defs><style type="text/css"></style></defs><path d="M512 1024c282.773333 0 512-229.226667 512-512S794.773333 0 512 0 0 229.226667 0 512s229.226667 512 512 512z" fill="#7D5DFF" p-id="6049"></path><path d="M771.84 436.48c-40.597333-14.464-171.157333-20.266667-171.157333-20.266667s-68.949333-148.394667-80.725334-165.888a11.306667 11.306667 0 0 0-18.56 0c-29.781333 35.562667-83.093333 165.888-83.093333 165.888s-132.266667 14.933333-158.464 18.688c-26.154667 5.973333-8.96 26.154667-8.96 26.154667l127.082667 112.170667s-29.866667 129.28-37.333334 161.450666c-5.973333 30.634667 23.168 20.117333 23.168 20.117334l151.594667-85.888s115.2 69.44 139.84 82.24c23.914667 11.221333 23.914667-6.72 23.914667-6.72l-21.973334-137.770667c10.602667-4.202667 20.48-10.048 29.226667-17.322667l-7.04 1.173334c-7.893333 1.962667-15.936 3.456-24.021333 4.48a1321.322667 1321.322667 0 0 1-261.461334 8.32c15.104-10.794667 158.826667-123.626667 158.826667-123.626667s-24.448-13.653333-187.52-16.533333c0 0 150.186667-26.581333 275.2 0-56.064 38.101333-166.037333 119.296-166.037333 119.296 59.861333 7.125333 120.128 10.048 180.373333 8.768l-3.2-20.266667s103.146667-97.152 120.341333-115.093333c12.714667-11.370667 4.586667-17.813333 0-19.434667l-0.021333 0.064z" fill="#ffffff" p-id="6050"></path></svg>