<?xml version="1.0" standalone="no"?><!DOCTYPE svg PUBLIC "-//W3C//DTD SVG 1.1//EN" "http://www.w3.org/Graphics/SVG/1.1/DTD/svg11.dtd"><svg t="1606968590441" class="icon" viewBox="0 0 1024 1024" version="1.1" xmlns="http://www.w3.org/2000/svg" p-id="5208" xmlns:xlink="http://www.w3.org/1999/xlink" width="128" height="128"><defs><style type="text/css"></style></defs><path d="M644.04290333 766.37676999c-7.76723001 0-17.47626667-1.94180779-25.24349554-5.82542222l-100.97398557-52.4288c-3.88361443-1.94180779-7.76723001-1.94180779-11.65084444 0l-100.97398557 52.4288c-17.47626667 9.70903666-38.83614777 7.76723001-54.37060664-3.88361444-15.53445888-11.65084445-23.30168889-31.0689189-19.41807446-50.48699221l19.41807446-112.62483001c0-3.88361443 0-9.70903666-3.88361558-11.65084444l-81.55591111-79.61410333c-13.59265223-13.59265223-19.41807445-34.95253333-13.59265109-54.37060779s23.30168889-33.01072555 42.7197622-34.95253333l112.62483001-15.53445888c3.88361443 0 7.76723001-3.88361443 9.70903666-7.76723001l50.48699335-100.97398556c9.70903666-17.47626667 27.18530333-29.12711111 46.60337778-29.12711111s38.83614777 11.65084445 46.60337778 29.12711111l50.48699221 100.97398556c1.94180779 3.88361443 5.82542222 5.82542222 9.70903665 7.76723001l112.62483002 15.53445888c19.41807445 1.94180779 36.89434112 17.47626667 42.71976334 34.95253333 5.82542222 19.41807445 1.94180779 38.83614777-13.59265224 54.37060779l-81.5559111 79.61410333c-3.88361443 3.88361443-3.88361443 7.76723001-3.88361444 11.65084444l19.41807332 112.62483001c3.88361443 19.41807445-3.88361443 38.83614777-21.35988111 50.48699221-9.70903666 7.76723001-19.41807445 9.70903666-31.06891889 9.70903666zM513.94180779 667.34459221c7.76723001 0 17.47626667 1.94180779 25.24349554 5.82542222l100.97398556 52.4288c5.82542222 3.88361443 11.65084445 0 13.59265223-1.94180664 1.94180779-1.94180779 5.82542222-5.82542222 5.82542222-13.59265224l-19.41807445-112.62483c-3.88361443-17.47626667 1.94180779-34.95253333 15.53445888-46.60337778l81.55591111-79.61410332c5.82542222-5.82542222 3.88361443-11.65084445 3.88361557-13.59265224s-3.88361443-7.76723001-11.65084444-9.70903666l-112.62483001-15.53445888c-17.47626667-1.94180779-31.0689189-13.59265223-38.83614777-29.1271111l-50.48699335-100.97398557c-5.82542222-3.88361443-11.65084445-3.88361443-13.59265109-3.88361443-1.94180779 0-7.76723001 0-11.65084445 7.76722886l-50.48699335 100.97398557c-7.76723001 15.53445888-23.30168889 25.24349667-38.83614777 29.12711111l-112.62483001 15.53445888c-7.76723001 1.94180779-9.70903666 5.82542222-11.65084444 9.7090378 0 1.94180779-1.94180779 7.76723001 3.88361557 13.59265109l81.55591111 79.61410446c11.65084445 11.65084445 17.47626667 29.12711111 15.53445888 46.60337778l-19.41807445 112.62482887c-1.94180779 7.76723001 3.88361443 11.65084445 5.82542222 13.59265223 1.94180779 1.94180779 7.76723001 3.88361443 13.59265223 1.94180779l100.97398557-52.4288c5.82542222-7.76723001 13.59265223-9.70903666 23.30168889-9.7090378z" fill="#cdcdcd" p-id="5209"></path><path d="M512 1016.86992555C234.32154112 1016.86992555 7.13007445 789.67845888 7.13007445 512S234.32154112 7.13007445 512 7.13007445s504.86992555 227.19146667 504.86992555 504.86992555-227.19146667 504.86992555-504.86992555 504.86992555z m0-970.90370333C255.68142222 45.96622222 45.96622222 255.68142222 45.96622222 512s209.7152 466.03377778 466.03377778 466.03377778 466.03377778-209.7152 466.03377778-466.03377778S768.31857778 45.96622222 512 45.96622222z" fill="#dbdbdb" p-id="5210"></path></svg>